<mxfile host="app.diagrams.net" modified="2021-08-04T07:07:02.014Z" agent="5.0 (Macintosh; Intel Mac OS X 10_15_7) AppleWebKit/605.1.15 (KHTML, like Gecko) Version/14.1 Safari/605.1.15" etag="JLfcb3qv4M4Gqh0J1Yti" version="14.9.4" type="github">
  <diagram id="C5RBs43oDa-KdzZeNtuy" name="Page-1">
    <mxGraphModel dx="974" dy="894" grid="1" gridSize="10" guides="1" tooltips="1" connect="1" arrows="1" fold="1" page="1" pageScale="1" pageWidth="827" pageHeight="1169" math="0" shadow="0">
      <root>
        <mxCell id="WIyWlLk6GJQsqaUBKTNV-0" />
        <mxCell id="WIyWlLk6GJQsqaUBKTNV-1" parent="WIyWlLk6GJQsqaUBKTNV-0" />
        <mxCell id="Md4piqNgcGMEt9OnkXE3-55" value="" style="rounded=0;whiteSpace=wrap;html=1;dashed=1;labelBackgroundColor=none;" vertex="1" parent="WIyWlLk6GJQsqaUBKTNV-1">
          <mxGeometry x="15" y="600" width="965" height="300" as="geometry" />
        </mxCell>
        <mxCell id="Md4piqNgcGMEt9OnkXE3-54" value="" style="rounded=0;whiteSpace=wrap;html=1;dashed=1;labelBackgroundColor=none;" vertex="1" parent="WIyWlLk6GJQsqaUBKTNV-1">
          <mxGeometry x="15" y="300" width="965" height="300" as="geometry" />
        </mxCell>
        <mxCell id="Md4piqNgcGMEt9OnkXE3-53" value="" style="rounded=0;whiteSpace=wrap;html=1;dashed=1;labelBackgroundColor=none;" vertex="1" parent="WIyWlLk6GJQsqaUBKTNV-1">
          <mxGeometry x="15" y="90" width="965" height="210" as="geometry" />
        </mxCell>
        <mxCell id="Md4piqNgcGMEt9OnkXE3-8" style="edgeStyle=orthogonalEdgeStyle;rounded=0;orthogonalLoop=1;jettySize=auto;html=1;exitX=0.5;exitY=0;exitDx=0;exitDy=0;entryX=0;entryY=0.5;entryDx=0;entryDy=0;dashed=1;" edge="1" parent="WIyWlLk6GJQsqaUBKTNV-1" source="Md4piqNgcGMEt9OnkXE3-0" target="Md4piqNgcGMEt9OnkXE3-2">
          <mxGeometry relative="1" as="geometry" />
        </mxCell>
        <mxCell id="Md4piqNgcGMEt9OnkXE3-51" style="edgeStyle=orthogonalEdgeStyle;rounded=0;orthogonalLoop=1;jettySize=auto;html=1;exitX=1;exitY=0.5;exitDx=0;exitDy=0;entryX=0;entryY=0.5;entryDx=0;entryDy=0;dashed=1;" edge="1" parent="WIyWlLk6GJQsqaUBKTNV-1" source="Md4piqNgcGMEt9OnkXE3-0" target="Md4piqNgcGMEt9OnkXE3-7">
          <mxGeometry relative="1" as="geometry" />
        </mxCell>
        <mxCell id="Md4piqNgcGMEt9OnkXE3-0" value="&lt;p style=&quot;margin: 0px; font-stretch: normal; line-height: normal; font-family: menlo; color: rgba(0, 0, 0, 0.85);&quot;&gt;addedLists[&lt;span style=&quot;color: #1c00cf&quot;&gt;0&lt;/span&gt;]&lt;/p&gt;" style="rounded=0;whiteSpace=wrap;html=1;fillColor=#dae8fc;strokeColor=#6c8ebf;labelBackgroundColor=none;dashed=1;" vertex="1" parent="WIyWlLk6GJQsqaUBKTNV-1">
          <mxGeometry x="150" y="220" width="150" height="40" as="geometry" />
        </mxCell>
        <mxCell id="Md4piqNgcGMEt9OnkXE3-1" value="0到1" style="text;html=1;strokeColor=#d6b656;fillColor=#fff2cc;align=center;verticalAlign=middle;whiteSpace=wrap;rounded=0;dashed=1;" vertex="1" parent="WIyWlLk6GJQsqaUBKTNV-1">
          <mxGeometry x="50" y="180" width="50" height="30" as="geometry" />
        </mxCell>
        <mxCell id="Md4piqNgcGMEt9OnkXE3-7" value="&lt;p style=&quot;margin: 0px ; font-stretch: normal ; line-height: normal ; font-family: &amp;#34;menlo&amp;#34; ; color: rgba(0 , 0 , 0 , 0.85)&quot;&gt;list&lt;/p&gt;" style="rounded=0;whiteSpace=wrap;html=1;fillColor=#f8cecc;strokeColor=#b85450;labelBackgroundColor=none;dashed=1;" vertex="1" parent="WIyWlLk6GJQsqaUBKTNV-1">
          <mxGeometry x="370" y="220" width="150" height="40" as="geometry" />
        </mxCell>
        <mxCell id="Md4piqNgcGMEt9OnkXE3-10" value="1到多" style="text;html=1;strokeColor=#d6b656;fillColor=#fff2cc;align=center;verticalAlign=middle;whiteSpace=wrap;rounded=0;dashed=1;" vertex="1" parent="WIyWlLk6GJQsqaUBKTNV-1">
          <mxGeometry x="50" y="435" width="50" height="30" as="geometry" />
        </mxCell>
        <mxCell id="Md4piqNgcGMEt9OnkXE3-12" value="&lt;p style=&quot;margin: 0px ; font-stretch: normal ; line-height: normal ; font-family: &amp;#34;menlo&amp;#34; ; color: rgba(0 , 0 , 0 , 0.85)&quot;&gt;list&lt;/p&gt;" style="rounded=0;whiteSpace=wrap;html=1;fillColor=#f8cecc;strokeColor=#b85450;labelBackgroundColor=none;dashed=1;" vertex="1" parent="WIyWlLk6GJQsqaUBKTNV-1">
          <mxGeometry x="150" y="390" width="90" height="40" as="geometry" />
        </mxCell>
        <mxCell id="Md4piqNgcGMEt9OnkXE3-13" value="oldList" style="text;html=1;strokeColor=#d6b656;fillColor=#fff2cc;align=center;verticalAlign=middle;whiteSpace=wrap;rounded=0;dashed=1;" vertex="1" parent="WIyWlLk6GJQsqaUBKTNV-1">
          <mxGeometry x="161.25" y="340" width="67.5" height="30" as="geometry" />
        </mxCell>
        <mxCell id="Md4piqNgcGMEt9OnkXE3-14" value="&lt;p style=&quot;margin: 0px; font-stretch: normal; line-height: normal; font-family: menlo; color: rgba(0, 0, 0, 0.85);&quot;&gt;addedLists&lt;/p&gt;" style="text;html=1;strokeColor=#d6b656;fillColor=#fff2cc;align=center;verticalAlign=middle;whiteSpace=wrap;rounded=0;dashed=1;labelBackgroundColor=none;" vertex="1" parent="WIyWlLk6GJQsqaUBKTNV-1">
          <mxGeometry x="440" y="340" width="110" height="30" as="geometry" />
        </mxCell>
        <mxCell id="Md4piqNgcGMEt9OnkXE3-15" value="&lt;p style=&quot;margin: 0px ; font-stretch: normal ; line-height: normal ; font-family: &amp;#34;menlo&amp;#34; ; color: rgba(0 , 0 , 0 , 0.85)&quot;&gt;list1&lt;/p&gt;" style="rounded=0;whiteSpace=wrap;html=1;fillColor=#d5e8d4;strokeColor=#82b366;labelBackgroundColor=none;dashed=1;" vertex="1" parent="WIyWlLk6GJQsqaUBKTNV-1">
          <mxGeometry x="310" y="390" width="90" height="40" as="geometry" />
        </mxCell>
        <mxCell id="Md4piqNgcGMEt9OnkXE3-16" value="&lt;p style=&quot;margin: 0px ; font-stretch: normal ; line-height: normal ; font-family: &amp;#34;menlo&amp;#34; ; color: rgba(0 , 0 , 0 , 0.85)&quot;&gt;list2&lt;/p&gt;" style="rounded=0;whiteSpace=wrap;html=1;fillColor=#d5e8d4;strokeColor=#82b366;labelBackgroundColor=none;dashed=1;" vertex="1" parent="WIyWlLk6GJQsqaUBKTNV-1">
          <mxGeometry x="400" y="390" width="90" height="40" as="geometry" />
        </mxCell>
        <mxCell id="Md4piqNgcGMEt9OnkXE3-17" value="&lt;p style=&quot;margin: 0px ; font-stretch: normal ; line-height: normal ; font-family: &amp;#34;menlo&amp;#34; ; color: rgba(0 , 0 , 0 , 0.85)&quot;&gt;list3&lt;/p&gt;" style="rounded=0;whiteSpace=wrap;html=1;fillColor=#d5e8d4;strokeColor=#82b366;labelBackgroundColor=none;dashed=1;" vertex="1" parent="WIyWlLk6GJQsqaUBKTNV-1">
          <mxGeometry x="490" y="390" width="90" height="40" as="geometry" />
        </mxCell>
        <mxCell id="Md4piqNgcGMEt9OnkXE3-18" value="&lt;p style=&quot;margin: 0px ; font-stretch: normal ; line-height: normal ; font-family: &amp;#34;menlo&amp;#34; ; color: rgba(0 , 0 , 0 , 0.85)&quot;&gt;list4&lt;/p&gt;" style="rounded=0;whiteSpace=wrap;html=1;fillColor=#d5e8d4;strokeColor=#82b366;labelBackgroundColor=none;dashed=1;" vertex="1" parent="WIyWlLk6GJQsqaUBKTNV-1">
          <mxGeometry x="580" y="390" width="90" height="40" as="geometry" />
        </mxCell>
        <mxCell id="Md4piqNgcGMEt9OnkXE3-19" value="&lt;p style=&quot;margin: 0px ; font-stretch: normal ; line-height: normal ; font-family: &amp;#34;menlo&amp;#34; ; color: rgba(0 , 0 , 0 , 0.85)&quot;&gt;list&lt;/p&gt;" style="rounded=0;whiteSpace=wrap;html=1;fillColor=#f8cecc;strokeColor=#b85450;labelBackgroundColor=none;dashed=1;horizontal=1;" vertex="1" parent="WIyWlLk6GJQsqaUBKTNV-1">
          <mxGeometry x="566" y="460" width="104" height="40" as="geometry" />
        </mxCell>
        <mxCell id="Md4piqNgcGMEt9OnkXE3-20" value="&lt;p style=&quot;margin: 0px ; font-stretch: normal ; line-height: normal ; font-family: &amp;#34;menlo&amp;#34; ; color: rgba(0 , 0 , 0 , 0.85)&quot;&gt;list1&lt;/p&gt;" style="rounded=0;whiteSpace=wrap;html=1;fillColor=#d5e8d4;strokeColor=#82b366;labelBackgroundColor=none;dashed=1;" vertex="1" parent="WIyWlLk6GJQsqaUBKTNV-1">
          <mxGeometry x="150" y="460" width="104" height="40" as="geometry" />
        </mxCell>
        <mxCell id="Md4piqNgcGMEt9OnkXE3-21" value="&lt;p style=&quot;margin: 0px ; font-stretch: normal ; line-height: normal ; font-family: &amp;#34;menlo&amp;#34; ; color: rgba(0 , 0 , 0 , 0.85)&quot;&gt;list2&lt;/p&gt;" style="rounded=0;whiteSpace=wrap;html=1;fillColor=#d5e8d4;strokeColor=#82b366;labelBackgroundColor=none;dashed=1;" vertex="1" parent="WIyWlLk6GJQsqaUBKTNV-1">
          <mxGeometry x="254" y="460" width="104" height="40" as="geometry" />
        </mxCell>
        <mxCell id="Md4piqNgcGMEt9OnkXE3-22" value="&lt;p style=&quot;margin: 0px ; font-stretch: normal ; line-height: normal ; font-family: &amp;#34;menlo&amp;#34; ; color: rgba(0 , 0 , 0 , 0.85)&quot;&gt;list3&lt;/p&gt;" style="rounded=0;whiteSpace=wrap;html=1;fillColor=#d5e8d4;strokeColor=#82b366;labelBackgroundColor=none;dashed=1;" vertex="1" parent="WIyWlLk6GJQsqaUBKTNV-1">
          <mxGeometry x="358" y="460" width="104" height="40" as="geometry" />
        </mxCell>
        <mxCell id="Md4piqNgcGMEt9OnkXE3-23" value="&lt;p style=&quot;margin: 0px ; font-stretch: normal ; line-height: normal ; font-family: &amp;#34;menlo&amp;#34; ; color: rgba(0 , 0 , 0 , 0.85)&quot;&gt;list4&lt;/p&gt;" style="rounded=0;whiteSpace=wrap;html=1;fillColor=#d5e8d4;strokeColor=#82b366;labelBackgroundColor=none;dashed=1;horizontal=1;" vertex="1" parent="WIyWlLk6GJQsqaUBKTNV-1">
          <mxGeometry x="462" y="460" width="104" height="40" as="geometry" />
        </mxCell>
        <mxCell id="Md4piqNgcGMEt9OnkXE3-24" value="" style="group" vertex="1" connectable="0" parent="WIyWlLk6GJQsqaUBKTNV-1">
          <mxGeometry x="250" y="130" width="250" height="40" as="geometry" />
        </mxCell>
        <mxCell id="Md4piqNgcGMEt9OnkXE3-2" value="e1" style="rounded=0;whiteSpace=wrap;html=1;fillColor=#ffe6cc;strokeColor=#d79b00;dashed=1;" vertex="1" parent="Md4piqNgcGMEt9OnkXE3-24">
          <mxGeometry width="50" height="40" as="geometry" />
        </mxCell>
        <mxCell id="Md4piqNgcGMEt9OnkXE3-3" value="e2" style="rounded=0;whiteSpace=wrap;html=1;fillColor=#ffe6cc;strokeColor=#d79b00;dashed=1;" vertex="1" parent="Md4piqNgcGMEt9OnkXE3-24">
          <mxGeometry x="50" width="50" height="40" as="geometry" />
        </mxCell>
        <mxCell id="Md4piqNgcGMEt9OnkXE3-4" value="e3" style="rounded=0;whiteSpace=wrap;html=1;fillColor=#ffe6cc;strokeColor=#d79b00;dashed=1;" vertex="1" parent="Md4piqNgcGMEt9OnkXE3-24">
          <mxGeometry x="100" width="50" height="40" as="geometry" />
        </mxCell>
        <mxCell id="Md4piqNgcGMEt9OnkXE3-5" value="e4" style="rounded=0;whiteSpace=wrap;html=1;fillColor=#ffe6cc;strokeColor=#d79b00;dashed=1;" vertex="1" parent="Md4piqNgcGMEt9OnkXE3-24">
          <mxGeometry x="150" width="50" height="40" as="geometry" />
        </mxCell>
        <mxCell id="Md4piqNgcGMEt9OnkXE3-6" value="e5" style="rounded=0;whiteSpace=wrap;html=1;fillColor=#ffe6cc;strokeColor=#d79b00;dashed=1;" vertex="1" parent="Md4piqNgcGMEt9OnkXE3-24">
          <mxGeometry x="200" width="50" height="40" as="geometry" />
        </mxCell>
        <mxCell id="Md4piqNgcGMEt9OnkXE3-26" value="array()" style="text;html=1;strokeColor=#d6b656;fillColor=#fff2cc;align=center;verticalAlign=middle;whiteSpace=wrap;rounded=0;dashed=1;" vertex="1" parent="WIyWlLk6GJQsqaUBKTNV-1">
          <mxGeometry x="365" y="530" width="90" height="30" as="geometry" />
        </mxCell>
        <mxCell id="Md4piqNgcGMEt9OnkXE3-27" value="多到多" style="text;html=1;strokeColor=#d6b656;fillColor=#fff2cc;align=center;verticalAlign=middle;whiteSpace=wrap;rounded=0;dashed=1;" vertex="1" parent="WIyWlLk6GJQsqaUBKTNV-1">
          <mxGeometry x="50" y="735" width="50" height="30" as="geometry" />
        </mxCell>
        <mxCell id="Md4piqNgcGMEt9OnkXE3-29" value="array()" style="text;html=1;strokeColor=#d6b656;fillColor=#fff2cc;align=center;verticalAlign=middle;whiteSpace=wrap;rounded=0;dashed=1;" vertex="1" parent="WIyWlLk6GJQsqaUBKTNV-1">
          <mxGeometry x="365" y="635" width="93.75" height="30" as="geometry" />
        </mxCell>
        <mxCell id="Md4piqNgcGMEt9OnkXE3-30" value="&lt;p style=&quot;margin: 0px; font-stretch: normal; line-height: normal; font-family: menlo; color: rgba(0, 0, 0, 0.85);&quot;&gt;addedLists&lt;/p&gt;" style="text;html=1;strokeColor=#d6b656;fillColor=#fff2cc;align=center;verticalAlign=middle;whiteSpace=wrap;rounded=0;dashed=1;labelBackgroundColor=none;" vertex="1" parent="WIyWlLk6GJQsqaUBKTNV-1">
          <mxGeometry x="760" y="635" width="110" height="30" as="geometry" />
        </mxCell>
        <mxCell id="Md4piqNgcGMEt9OnkXE3-35" value="&lt;p style=&quot;margin: 0px ; font-stretch: normal ; line-height: normal ; font-family: &amp;#34;menlo&amp;#34; ; color: rgba(0 , 0 , 0 , 0.85)&quot;&gt;list&lt;/p&gt;" style="rounded=0;whiteSpace=wrap;html=1;fillColor=#f8cecc;strokeColor=#b85450;labelBackgroundColor=none;dashed=1;horizontal=1;" vertex="1" parent="WIyWlLk6GJQsqaUBKTNV-1">
          <mxGeometry x="566" y="690" width="104" height="40" as="geometry" />
        </mxCell>
        <mxCell id="Md4piqNgcGMEt9OnkXE3-36" value="&lt;p style=&quot;margin: 0px ; font-stretch: normal ; line-height: normal ; font-family: &amp;#34;menlo&amp;#34; ; color: rgba(0 , 0 , 0 , 0.85)&quot;&gt;list1&lt;/p&gt;" style="rounded=0;whiteSpace=wrap;html=1;fillColor=#d5e8d4;strokeColor=#82b366;labelBackgroundColor=none;dashed=1;" vertex="1" parent="WIyWlLk6GJQsqaUBKTNV-1">
          <mxGeometry x="150" y="690" width="104" height="40" as="geometry" />
        </mxCell>
        <mxCell id="Md4piqNgcGMEt9OnkXE3-37" value="&lt;p style=&quot;margin: 0px ; font-stretch: normal ; line-height: normal ; font-family: &amp;#34;menlo&amp;#34; ; color: rgba(0 , 0 , 0 , 0.85)&quot;&gt;list2&lt;/p&gt;" style="rounded=0;whiteSpace=wrap;html=1;fillColor=#d5e8d4;strokeColor=#82b366;labelBackgroundColor=none;dashed=1;" vertex="1" parent="WIyWlLk6GJQsqaUBKTNV-1">
          <mxGeometry x="254" y="690" width="104" height="40" as="geometry" />
        </mxCell>
        <mxCell id="Md4piqNgcGMEt9OnkXE3-38" value="&lt;p style=&quot;margin: 0px ; font-stretch: normal ; line-height: normal ; font-family: &amp;#34;menlo&amp;#34; ; color: rgba(0 , 0 , 0 , 0.85)&quot;&gt;list3&lt;/p&gt;" style="rounded=0;whiteSpace=wrap;html=1;fillColor=#d5e8d4;strokeColor=#82b366;labelBackgroundColor=none;dashed=1;" vertex="1" parent="WIyWlLk6GJQsqaUBKTNV-1">
          <mxGeometry x="358" y="690" width="104" height="40" as="geometry" />
        </mxCell>
        <mxCell id="Md4piqNgcGMEt9OnkXE3-39" value="&lt;p style=&quot;margin: 0px ; font-stretch: normal ; line-height: normal ; font-family: &amp;#34;menlo&amp;#34; ; color: rgba(0 , 0 , 0 , 0.85)&quot;&gt;list4&lt;/p&gt;" style="rounded=0;whiteSpace=wrap;html=1;fillColor=#d5e8d4;strokeColor=#82b366;labelBackgroundColor=none;dashed=1;horizontal=1;" vertex="1" parent="WIyWlLk6GJQsqaUBKTNV-1">
          <mxGeometry x="462" y="690" width="104" height="40" as="geometry" />
        </mxCell>
        <mxCell id="Md4piqNgcGMEt9OnkXE3-40" value="&lt;span style=&quot;color: rgba(0, 0, 0, 0.85); font-family: menlo;&quot;&gt;newArray&lt;/span&gt;()" style="text;html=1;strokeColor=#d6b656;fillColor=#fff2cc;align=center;verticalAlign=middle;whiteSpace=wrap;rounded=0;dashed=1;labelBackgroundColor=none;" vertex="1" parent="WIyWlLk6GJQsqaUBKTNV-1">
          <mxGeometry x="472.5" y="835" width="125" height="30" as="geometry" />
        </mxCell>
        <mxCell id="Md4piqNgcGMEt9OnkXE3-41" value="&lt;p style=&quot;margin: 0px ; font-stretch: normal ; line-height: normal ; font-family: &amp;#34;menlo&amp;#34; ; color: rgba(0 , 0 , 0 , 0.85)&quot;&gt;list6&lt;/p&gt;" style="rounded=0;whiteSpace=wrap;html=1;fillColor=#e1d5e7;strokeColor=#9673a6;labelBackgroundColor=none;dashed=1;horizontal=1;" vertex="1" parent="WIyWlLk6GJQsqaUBKTNV-1">
          <mxGeometry x="816" y="690" width="104" height="40" as="geometry" />
        </mxCell>
        <mxCell id="Md4piqNgcGMEt9OnkXE3-42" value="&lt;p style=&quot;margin: 0px ; font-stretch: normal ; line-height: normal ; font-family: &amp;#34;menlo&amp;#34; ; color: rgba(0 , 0 , 0 , 0.85)&quot;&gt;list5&lt;/p&gt;" style="rounded=0;whiteSpace=wrap;html=1;fillColor=#e1d5e7;strokeColor=#9673a6;labelBackgroundColor=none;dashed=1;horizontal=1;" vertex="1" parent="WIyWlLk6GJQsqaUBKTNV-1">
          <mxGeometry x="712" y="690" width="104" height="40" as="geometry" />
        </mxCell>
        <mxCell id="Md4piqNgcGMEt9OnkXE3-44" value="&lt;p style=&quot;margin: 0px ; font-stretch: normal ; line-height: normal ; font-family: &amp;#34;menlo&amp;#34; ; color: rgba(0 , 0 , 0 , 0.85)&quot;&gt;list&lt;/p&gt;" style="rounded=0;whiteSpace=wrap;html=1;fillColor=#f8cecc;strokeColor=#b85450;labelBackgroundColor=none;dashed=1;horizontal=1;" vertex="1" parent="WIyWlLk6GJQsqaUBKTNV-1">
          <mxGeometry x="810" y="765" width="110" height="40" as="geometry" />
        </mxCell>
        <mxCell id="Md4piqNgcGMEt9OnkXE3-45" value="&lt;p style=&quot;margin: 0px ; font-stretch: normal ; line-height: normal ; font-family: &amp;#34;menlo&amp;#34; ; color: rgba(0 , 0 , 0 , 0.85)&quot;&gt;list1&lt;/p&gt;" style="rounded=0;whiteSpace=wrap;html=1;fillColor=#d5e8d4;strokeColor=#82b366;labelBackgroundColor=none;dashed=1;" vertex="1" parent="WIyWlLk6GJQsqaUBKTNV-1">
          <mxGeometry x="370" y="765" width="110" height="40" as="geometry" />
        </mxCell>
        <mxCell id="Md4piqNgcGMEt9OnkXE3-46" value="&lt;p style=&quot;margin: 0px ; font-stretch: normal ; line-height: normal ; font-family: &amp;#34;menlo&amp;#34; ; color: rgba(0 , 0 , 0 , 0.85)&quot;&gt;list2&lt;/p&gt;" style="rounded=0;whiteSpace=wrap;html=1;fillColor=#d5e8d4;strokeColor=#82b366;labelBackgroundColor=none;dashed=1;" vertex="1" parent="WIyWlLk6GJQsqaUBKTNV-1">
          <mxGeometry x="480" y="765" width="110" height="40" as="geometry" />
        </mxCell>
        <mxCell id="Md4piqNgcGMEt9OnkXE3-47" value="&lt;p style=&quot;margin: 0px ; font-stretch: normal ; line-height: normal ; font-family: &amp;#34;menlo&amp;#34; ; color: rgba(0 , 0 , 0 , 0.85)&quot;&gt;list3&lt;/p&gt;" style="rounded=0;whiteSpace=wrap;html=1;fillColor=#d5e8d4;strokeColor=#82b366;labelBackgroundColor=none;dashed=1;" vertex="1" parent="WIyWlLk6GJQsqaUBKTNV-1">
          <mxGeometry x="590" y="765" width="110" height="40" as="geometry" />
        </mxCell>
        <mxCell id="Md4piqNgcGMEt9OnkXE3-48" value="&lt;p style=&quot;margin: 0px ; font-stretch: normal ; line-height: normal ; font-family: &amp;#34;menlo&amp;#34; ; color: rgba(0 , 0 , 0 , 0.85)&quot;&gt;list4&lt;/p&gt;" style="rounded=0;whiteSpace=wrap;html=1;fillColor=#d5e8d4;strokeColor=#82b366;labelBackgroundColor=none;dashed=1;horizontal=1;" vertex="1" parent="WIyWlLk6GJQsqaUBKTNV-1">
          <mxGeometry x="700" y="765" width="110" height="40" as="geometry" />
        </mxCell>
        <mxCell id="Md4piqNgcGMEt9OnkXE3-49" value="&lt;p style=&quot;margin: 0px ; font-stretch: normal ; line-height: normal ; font-family: &amp;#34;menlo&amp;#34; ; color: rgba(0 , 0 , 0 , 0.85)&quot;&gt;list6&lt;/p&gt;" style="rounded=0;whiteSpace=wrap;html=1;fillColor=#e1d5e7;strokeColor=#9673a6;labelBackgroundColor=none;dashed=1;horizontal=1;" vertex="1" parent="WIyWlLk6GJQsqaUBKTNV-1">
          <mxGeometry x="260" y="765" width="110" height="40" as="geometry" />
        </mxCell>
        <mxCell id="Md4piqNgcGMEt9OnkXE3-50" value="&lt;p style=&quot;margin: 0px ; font-stretch: normal ; line-height: normal ; font-family: &amp;#34;menlo&amp;#34; ; color: rgba(0 , 0 , 0 , 0.85)&quot;&gt;list5&lt;/p&gt;" style="rounded=0;whiteSpace=wrap;html=1;fillColor=#e1d5e7;strokeColor=#9673a6;labelBackgroundColor=none;dashed=1;horizontal=1;" vertex="1" parent="WIyWlLk6GJQsqaUBKTNV-1">
          <mxGeometry x="150" y="765" width="110" height="40" as="geometry" />
        </mxCell>
        <mxCell id="Md4piqNgcGMEt9OnkXE3-56" value="&lt;p style=&quot;margin: 0px ; font-stretch: normal ; line-height: normal ; font-family: &amp;#34;menlo&amp;#34; ; color: rgba(0 , 0 , 0 , 0.85)&quot;&gt;addedLists为双指针，里面元素是指针，指向方法/属性/协议列表&lt;/p&gt;" style="shape=note;whiteSpace=wrap;html=1;backgroundOutline=1;darkOpacity=0.05;dashed=1;labelBackgroundColor=none;fillColor=#fff2cc;strokeColor=#d6b656;" vertex="1" parent="WIyWlLk6GJQsqaUBKTNV-1">
          <mxGeometry x="620" y="145" width="200" height="85" as="geometry" />
        </mxCell>
        <mxCell id="Md4piqNgcGMEt9OnkXE3-57" value="" style="curved=1;endArrow=classic;html=1;dashed=1;entryX=0;entryY=0.5;entryDx=0;entryDy=0;entryPerimeter=0;exitX=1;exitY=0;exitDx=0;exitDy=0;" edge="1" parent="WIyWlLk6GJQsqaUBKTNV-1" source="Md4piqNgcGMEt9OnkXE3-0" target="Md4piqNgcGMEt9OnkXE3-56">
          <mxGeometry width="50" height="50" relative="1" as="geometry">
            <mxPoint x="320" y="220" as="sourcePoint" />
            <mxPoint x="560" y="180" as="targetPoint" />
            <Array as="points">
              <mxPoint x="350" y="220" />
              <mxPoint x="530" y="170" />
            </Array>
          </mxGeometry>
        </mxCell>
        <mxCell id="Md4piqNgcGMEt9OnkXE3-59" value="&lt;p style=&quot;margin: 0px ; font-stretch: normal ; line-height: normal ; font-family: &amp;#34;menlo&amp;#34; ; color: rgba(0 , 0 , 0 , 0.85)&quot;&gt;addedLists为双指针，里面元素是指针，指向方法/属性/协议列表&lt;/p&gt;" style="shape=note;whiteSpace=wrap;html=1;backgroundOutline=1;darkOpacity=0.05;dashed=1;labelBackgroundColor=none;fillColor=#fff2cc;strokeColor=#d6b656;" vertex="1" parent="WIyWlLk6GJQsqaUBKTNV-1">
          <mxGeometry x="750" y="330" width="200" height="85" as="geometry" />
        </mxCell>
      </root>
    </mxGraphModel>
  </diagram>
</mxfile>
